<?xml version="1.0" encoding="UTF-8"?>
<svg id="Layer_2" data-name="Layer 2" xmlns="http://www.w3.org/2000/svg" viewBox="0 0 654.6 142.16">
  <defs>
    <style>
      .cls-1 {
        fill: #fffbeb;
        stroke-width: 0px;
      }
    </style>
  </defs>
  <g id="Layer_1-2" data-name="Layer 1">
    <g>
      <g>
        <path class="cls-1" d="m444.46,131.15c-24.98,0-42.58-16.6-42.58-43.58s17.43-43.58,41.74-43.58,39.56,15.59,39.56,43.58v5.2h-60.85v.17c0,13.75,8.72,22.8,22.13,22.8,10.39,0,16.43-5.36,18.27-12.07h19.28c-3.19,16.26-17.1,27.49-37.55,27.49Zm-22.13-51.97h40.9c0-11.9-7.88-19.78-19.95-19.78s-19.95,7.38-20.95,19.78Z"/>
        <path class="cls-1" d="m519.16,131.15c-16.93,0-25.82-9.89-25.82-22.46,0-14.42,11.4-22.13,24.31-25.48l27.66-6.87v-1.51c0-11.23-5.87-15.42-15.42-15.42-10.23,0-15.92,5.03-16.26,15.25h-19.95c1.34-20.28,16.6-30.68,37.05-30.68,22.13,0,34.36,12.57,34.36,33.19v52.3h-19.44v-13.91c-5.53,9.89-13.91,15.59-26.49,15.59Zm-6.04-24.98c0,7.21,5.2,10.73,13.08,10.73,11.23,0,19.11-7.54,19.11-19.78v-7.71l-19.95,4.86c-8.38,2.01-12.24,5.87-12.24,11.9Z"/>
        <path class="cls-1" d="m604.94,130.38c-15.59,0-21.29-7.04-21.29-21.12v-45.93h-10.56v-16.76h10.56v-20.28l19.78-3.19v23.47h15.76v16.76h-15.76v43.25c0,5.7,1.51,7.04,7.04,7.04h8.72v16.76h-14.25Z"/>
        <path class="cls-1" d="m365.04,32.46c0-13.24,6.2-21.46,20.79-21.46h13.41v16.26h-7.55c-5.19,0-6.87,1.51-6.87,7.04v12.07h14.42v16.76h-14.42v67.05h-19.78V63.14h-10.73v-16.76h10.73v-13.91Z"/>
        <path class="cls-1" d="m316.38,11h19.78v95.88c0,5.53,1.68,7.04,6.87,7.04h9.22v16.26h-15.09c-14.58,0-20.79-8.21-20.79-21.46V11Z"/>
        <path class="cls-1" d="m273.7,11h19.78v95.88c0,5.53,1.68,7.04,6.87,7.04h9.22v16.26h-15.09c-14.58,0-20.79-8.21-20.79-21.46V11Z"/>
        <path class="cls-1" d="m232.68,24.45l34.9,105.94h-20.79l-10.06-31.35h-45.6l-9.89,31.35h-20.79l35.06-105.96c2.65-8.01,10.14-13.42,18.58-13.42h0c8.45,0,15.94,5.42,18.58,13.44Zm-35.84,56.48h34.2l-16.22-51.3c-.26-.86-1.48-.86-1.75,0l-16.22,51.3Z"/>
        <path class="cls-1" d="m642.47,130.38c-6.7,0-12.12-5.43-12.12-12.12h0c0-6.7,5.43-12.12,12.12-12.12h0c6.7,0,12.12,5.43,12.12,12.12h0c0,6.7-5.43,12.12-12.12,12.12h0Z"/>
      </g>
      <g>
        <path class="cls-1" d="m115.48,86.35c4.76-.72,9.79.04,14.28,2.69,10.38,6.12,13.93,19.69,7.94,30.29-5.99,10.61-19.26,14.24-29.64,8.12-4.45-2.63-7.52-6.39-9.37-11.18-.39-.99-.72-2.21-1.09-3.52-1.17-4.2-2.62-9.45-6.89-11.97-3.87-2.28-8.03-1.29-12.3-.28-1.67.4-3.35.8-5.04,1.01-.62.08-1.24.13-1.86.16-.17.01-.33.01-.5.02h-.12c-.06,0-.12,0-.19,0-.05,0-.1,0-.16,0-.08,0-.15,0-.23,0-1.32,0-2.62-.13-3.87-.36l-.21-.04c-.18-.04-.36-.07-.54-.11-.23-.05-.47-.1-.7-.16-.05-.01-.09-.02-.14-.03-.16-.04-.31-.08-.47-.13-.72-.16-1.45-.33-2.17-.5-4.27-1.02-8.44-2.01-12.3.28-4.27,2.52-5.73,7.77-6.89,11.97-.36,1.31-.7,2.53-1.09,3.52-1.85,4.79-4.92,8.55-9.37,11.18-10.38,6.12-23.65,2.49-29.64-8.12-5.99-10.61-2.44-24.17,7.94-30.3,4.5-2.65,9.52-3.41,14.28-2.69,1.27.19,2.6.59,3.99,1,3.92,1.16,8.27,2.45,13-.34,4.36-2.57,5.57-7.16,6.66-11.27.42-1.58.82-3.09,1.37-4.38.87-2.03,1.98-3.96,3.35-5.72.96-1.26,2.04-2.44,3.11-3.6,3-3.27,5.92-6.46,5.92-11.03,0-5.04-3.72-8.95-6.7-12.09-.93-.98-1.79-1.88-2.44-2.72-3.13-4.03-4.78-8.63-4.78-13.89,0-12.25,9.72-22.18,21.7-22.18s21.7,9.93,21.7,22.18c0,5.31-1.87,10.14-4.86,13.99-.8,1.03-1.8,2.01-2.84,3.03-2.94,2.88-6.21,6.09-6.21,11.67,0,5.14,3.28,8.51,6.21,11.52.24.25.48.49.71.74,1.57,1.48,2.95,3.23,4.07,5.22.94,1.67,1.64,3.41,2.13,5.18.21.71.41,1.46.61,2.22,1.09,4.1,2.3,8.7,6.66,11.27,4.73,2.79,9.08,1.5,13,.34,1.38-.41,2.71-.8,3.99-1Z"/>
        <path class="cls-1" d="m43.92,54.81c0,8.25-6.55,14.94-14.62,14.94s-14.62-6.69-14.62-14.94,6.55-14.94,14.62-14.94,14.62,6.69,14.62,14.94Z"/>
        <path class="cls-1" d="m125.65,54.81c0,8.25-6.55,14.94-14.62,14.94s-14.62-6.69-14.62-14.94,6.55-14.94,14.62-14.94,14.62,6.69,14.62,14.94Z"/>
        <path class="cls-1" d="m69.95,142.16c8.07,0,14.62-6.69,14.62-14.94s-6.55-14.94-14.62-14.94-14.62,6.69-14.62,14.94,6.55,14.94,14.62,14.94Z"/>
      </g>
    </g>
  </g>
</svg>